<?xml version="1.0" standalone="no"?>
<!DOCTYPE svg PUBLIC "-//W3C//DTD SVG 20010904//EN"
 "http://www.w3.org/TR/2001/REC-SVG-20010904/DTD/svg10.dtd">
<svg version="1.0" xmlns="http://www.w3.org/2000/svg"
 width="300.000000pt" height="159.000000pt" viewBox="0 0 300.000000 159.000000"
 preserveAspectRatio="xMidYMid meet">
<metadata>
Created by potrace 1.10, written by Peter Selinger 2001-2011
</metadata>
<g transform="translate(0.000000,159.000000) scale(0.100000,-0.100000)"
fill="#000000" stroke="none">
<path d="M1165 1423 c-75 -22 -110 -54 -149 -136 -60 -126 -76 -196 -92 -407
-15 -181 -13 -501 2 -552 4 -15 -1 -18 -34 -18 -45 0 -87 -35 -72 -60 14 -23
182 -21 234 3 35 15 38 19 25 32 -8 8 -39 15 -75 17 l-61 3 -7 89 c-10 144 -7
339 9 522 13 149 19 185 50 270 43 121 77 172 134 201 61 31 144 40 186 20 37
-18 70 -77 81 -144 4 -24 10 -43 15 -43 13 0 11 27 -7 89 -34 121 -106 155
-239 114z m-238 -1139 c4 -11 8 -12 13 -4 5 7 26 8 71 2 l64 -8 -55 -13 c-61
-14 -180 -11 -181 4 -2 12 39 35 64 35 10 0 20 -7 24 -16z"/>
<path d="M1312 1255 c-69 -21 -82 -38 -82 -109 0 -34 5 -68 11 -76 7 -11 9 2
7 47 -3 59 -2 62 17 55 11 -4 52 -7 90 -7 54 1 82 7 123 27 29 14 54 23 56 19
2 -3 7 -31 10 -63 l7 -56 -58 -23 c-48 -19 -75 -23 -155 -22 -110 1 -122 -11
-23 -22 36 -3 65 -11 65 -16 0 -18 52 -9 57 10 3 13 20 23 48 30 42 11 113 60
88 61 -7 0 -13 12 -13 28 0 43 -20 106 -38 120 -9 6 -32 12 -51 11 l-36 -1 42
-11 c23 -7 44 -15 48 -18 3 -4 -18 -17 -47 -29 -77 -34 -228 -40 -228 -10 0
14 52 39 99 46 22 4 38 10 35 15 -7 12 -20 11 -72 -6z"/>
</g>
</svg>
