<svg version="1.1" id="Layer_1" xmlns="http://www.w3.org/2000/svg" xmlns:xlink="http://www.w3.org/1999/xlink" x="0px" y="0px"
	 width="100%" viewBox="0 0 1920 1019" enable-background="new 0 0 1920 1019" xml:space="preserve">
<path fill="#000000" opacity="1.000000" stroke="none" 
	d="
M1120.000000,1020.000000 
	C746.666809,1020.000000 373.833588,1020.000000 1.000300,1020.000000 
	C1.000200,680.333618 1.000200,340.667175 1.000100,1.000382 
	C1.499745,1.000000 1.999490,1.000000 2.499235,1.000000 
	C641.999023,1.000000 1281.498779,1.000000 1920.998901,1.000000 
	C1920.999268,340.666046 1920.999268,680.332092 1920.999634,1019.999084 
	C1654.166626,1020.000000 1387.333374,1020.000000 1120.000000,1020.000000 
M1528.952881,423.425446 
	C1524.224731,419.869965 1518.961304,418.036499 1513.095215,416.783905 
	C1490.973999,412.060242 1470.228760,432.790161 1475.499390,456.848633 
	C1479.338013,474.370300 1493.572876,484.891754 1512.520630,482.951477 
	C1520.424316,482.142090 1527.400513,478.585724 1532.522461,472.724792 
	C1545.615479,457.743195 1543.618896,435.718964 1528.952881,423.425446 
M519.763123,396.017517 
	C531.515259,398.879456 545.517578,396.554810 555.229126,384.424255 
	C566.521118,370.319733 563.936890,346.335541 547.373535,335.691925 
	C533.892029,327.028717 515.066162,328.692169 504.063385,341.116211 
	C495.699280,350.560791 494.098602,367.229065 498.621613,377.423798 
	C502.793427,386.826904 509.839233,392.318787 519.763123,396.017517 
M250.002167,558.177856 
	C254.426361,573.357605 268.651398,582.968872 283.493805,582.125183 
	C304.597443,580.925415 318.908081,562.668701 314.564331,541.615417 
	C310.456665,521.706421 291.995209,511.552124 273.399506,516.132690 
	C254.959625,520.674805 245.236725,539.309509 250.002167,558.177856 
M1004.001526,799.499695 
	C1005.070740,800.245605 1006.242798,800.879761 1007.193848,801.754211 
	C1020.374878,813.875000 1043.701660,810.244751 1054.221191,796.532410 
	C1067.947510,778.639832 1060.659180,749.812073 1036.863892,743.352844 
	C1020.511658,738.913940 1004.711609,746.367249 998.071899,760.908569 
	C991.801880,774.640442 994.444397,787.318970 1004.001526,799.499695 
M193.606430,168.983017 
	C184.592743,170.335587 177.887619,175.595917 173.169861,182.812469 
	C163.711197,197.281021 166.608932,218.545715 181.628647,229.165558 
	C195.236328,238.787018 214.045303,236.868851 225.060806,225.175476 
	C234.681107,214.963181 236.770050,202.365906 231.894333,189.169479 
	C226.120926,173.543411 209.022247,165.486633 193.606430,168.983017 
M1171.113281,929.949951 
	C1174.107056,929.966919 1177.100708,929.994995 1180.094482,929.998840 
	C1188.764404,930.010132 1196.151855,926.328735 1201.855835,920.388977 
	C1210.758789,911.118042 1213.462402,899.510132 1209.834473,887.230469 
	C1205.986206,874.204407 1197.163940,866.613159 1183.330933,863.774902 
	C1160.753296,859.142517 1140.253418,880.185120 1145.546143,904.043701 
	C1148.550537,917.587524 1157.410645,925.608826 1171.113281,929.949951 
M975.368042,936.004456 
	C979.334106,932.755615 983.947937,930.042786 987.155640,926.166443 
	C1002.066772,908.146484 992.613464,879.675659 970.090759,873.493591 
	C953.534546,868.949280 940.531982,875.688171 933.210510,886.769409 
	C923.438965,901.558899 926.570068,922.977539 942.017151,933.398682 
	C952.212952,940.277161 963.225220,941.272949 975.368042,936.004456 
M1757.535156,186.993622 
	C1768.327026,172.876160 1766.157837,151.381714 1751.344604,139.980118 
	C1738.643188,130.203949 1718.896851,130.532578 1706.699219,143.445038 
	C1697.229858,153.469376 1696.350830,171.209122 1700.826294,180.971497 
	C1706.895020,194.209106 1720.680176,201.935501 1735.765869,199.896362 
	C1744.367554,198.733673 1751.834106,194.904739 1757.535156,186.993622 
z"/>
<path fill="#0E0EFF" opacity="1.000000" stroke="none" 
	d="
M1529.202026,423.692902 
	C1543.618896,435.718964 1545.615479,457.743195 1532.522461,472.724792 
	C1527.400513,478.585724 1520.424316,482.142090 1512.520630,482.951477 
	C1493.572876,484.891754 1479.338013,474.370300 1475.499390,456.848633 
	C1470.228760,432.790161 1490.973999,412.060242 1513.095215,416.783905 
	C1518.961304,418.036499 1524.224731,419.869965 1529.202026,423.692902 
M1479.986694,439.706818 
	C1475.710571,451.188385 1478.926392,465.709229 1490.716919,474.345398 
	C1505.283325,485.014923 1521.306030,480.387726 1530.670288,469.122101 
	C1542.837280,454.484589 1539.992432,436.871674 1525.329468,425.040436 
	C1519.889648,420.651154 1512.999390,418.390106 1506.077271,419.219482 
	C1493.848999,420.684662 1484.893799,427.267395 1479.986694,439.706818 
z"/>
<path fill="#0F0FFF" opacity="1.000000" stroke="none" 
	d="
M519.346802,395.979065 
	C509.839233,392.318787 502.793427,386.826904 498.621613,377.423798 
	C494.098602,367.229065 495.699280,350.560791 504.063385,341.116211 
	C515.066162,328.692169 533.892029,327.028717 547.373535,335.691925 
	C563.936890,346.335541 566.521118,370.319733 555.229126,384.424255 
	C545.517578,396.554810 531.515259,398.879456 519.346802,395.979065 
M559.001343,365.278107 
	C558.531494,361.554932 558.756348,357.569794 557.468750,354.154999 
	C552.502686,340.985138 539.660278,330.244171 522.624634,334.098328 
	C506.823700,337.673126 498.052521,351.747986 499.195740,366.550629 
	C499.891449,375.558167 504.238068,382.985474 511.946899,388.596191 
	C525.774841,398.660583 542.583557,394.292358 551.902222,382.384369 
	C555.423035,377.885223 556.694824,371.626038 559.001343,365.278107 
z"/>
<path fill="#0E0EFF" opacity="1.000000" stroke="none" 
	d="
M249.989319,557.751709 
	C245.236725,539.309509 254.959625,520.674805 273.399506,516.132690 
	C291.995209,511.552124 310.456665,521.706421 314.564331,541.615417 
	C318.908081,562.668701 304.597443,580.925415 283.493805,582.125183 
	C268.651398,582.968872 254.426361,573.357605 249.989319,557.751709 
M254.366653,537.149414 
	C253.589371,541.962952 251.807236,546.871216 252.249756,551.569824 
	C253.098648,560.583191 257.263550,568.022461 264.978271,573.622986 
	C278.772797,583.637207 295.381958,579.149841 305.080475,567.438354 
	C311.213837,560.031921 313.394440,551.445129 311.038483,541.826660 
	C307.464294,527.234619 295.267059,517.779297 281.173645,518.263489 
	C269.184052,518.675476 259.804596,524.925415 254.366653,537.149414 
z"/>
<path fill="#0E0EFF" opacity="1.000000" stroke="none" 
	d="
M1003.739746,799.242676 
	C994.444397,787.318970 991.801880,774.640442 998.071899,760.908569 
	C1004.711609,746.367249 1020.511658,738.913940 1036.863892,743.352844 
	C1060.659180,749.812073 1067.947510,778.639832 1054.221191,796.532410 
	C1043.701660,810.244751 1020.374878,813.875000 1007.193848,801.754211 
	C1006.242798,800.879761 1005.070740,800.245605 1003.739746,799.242676 
M1033.723267,805.733826 
	C1040.351685,803.042725 1046.881958,800.266174 1051.364624,794.216003 
	C1057.000122,786.609863 1059.302246,778.420532 1057.053467,768.978455 
	C1053.576294,754.378906 1041.445923,744.870361 1027.346191,745.261963 
	C1015.133118,745.601135 1005.762817,752.099731 1000.670471,763.778625 
	C995.315125,776.060852 998.950989,791.391052 1009.853943,799.645081 
	C1016.996887,805.052612 1024.471313,806.535217 1033.723267,805.733826 
z"/>
<path fill="#0F0FFF" opacity="1.000000" stroke="none" 
	d="
M194.035919,168.933487 
	C209.022247,165.486633 226.120926,173.543411 231.894333,189.169479 
	C236.770050,202.365906 234.681107,214.963181 225.060806,225.175476 
	C214.045303,236.868851 195.236328,238.787018 181.628647,229.165558 
	C166.608932,218.545715 163.711197,197.281021 173.169861,182.812469 
	C177.887619,175.595917 184.592743,170.335587 194.035919,168.933487 
M208.068924,172.060760 
	C204.056549,172.036469 199.936523,171.405869 196.050995,172.095886 
	C181.512482,174.677704 173.517776,184.105728 171.488953,198.241623 
	C169.901947,209.299133 173.848404,218.461349 182.956497,225.593842 
	C193.436966,233.801041 204.113297,234.173172 215.326050,227.875961 
	C225.715866,222.040924 230.941101,212.831146 230.914932,201.061157 
	C230.887802,188.850845 222.727341,176.678711 208.068924,172.060760 
z"/>
<path fill="#0E0EFF" opacity="1.000000" stroke="none" 
	d="
M1170.691895,929.836060 
	C1157.410645,925.608826 1148.550537,917.587524 1145.546143,904.043701 
	C1140.253418,880.185120 1160.753296,859.142517 1183.330933,863.774902 
	C1197.163940,866.613159 1205.986206,874.204407 1209.834473,887.230469 
	C1213.462402,899.510132 1210.758789,911.118042 1201.855835,920.388977 
	C1196.151855,926.328735 1188.764404,930.010132 1180.094482,929.998840 
	C1177.100708,929.994995 1174.107056,929.966919 1170.691895,929.836060 
M1171.766724,867.007568 
	C1155.801025,870.588379 1145.187012,886.834900 1148.927002,904.199585 
	C1151.032349,913.974731 1162.713745,925.662842 1172.720703,926.979187 
	C1192.547729,929.587219 1211.644165,911.755432 1207.211060,890.502625 
	C1204.114136,875.655457 1187.576538,863.076050 1171.766724,867.007568 
z"/>
<path fill="#0F0FFF" opacity="1.000000" stroke="none" 
	d="
M974.976746,936.053467 
	C963.225220,941.272949 952.212952,940.277161 942.017151,933.398682 
	C926.570068,922.977539 923.438965,901.558899 933.210510,886.769409 
	C940.531982,875.688171 953.534546,868.949280 970.090759,873.493591 
	C992.613464,879.675659 1002.066772,908.146484 987.155640,926.166443 
	C983.947937,930.042786 979.334106,932.755615 974.976746,936.053467 
M969.047241,934.948730 
	C973.968872,931.802002 980.084473,929.627808 983.588257,925.326233 
	C994.129395,912.385010 993.842712,895.300110 980.705933,883.184937 
	C966.198303,869.805603 944.717651,874.096741 935.414734,890.358704 
	C928.310608,902.777161 929.778259,915.025513 938.777039,926.257690 
	C944.994873,934.018677 959.055603,938.209351 969.047241,934.948730 
z"/>
<path fill="#0F0FFF" opacity="1.000000" stroke="none" 
	d="
M1757.272461,187.251785 
	C1751.834106,194.904739 1744.367554,198.733673 1735.765869,199.896362 
	C1720.680176,201.935501 1706.895020,194.209106 1700.826294,180.971497 
	C1696.350830,171.209122 1697.229858,153.469376 1706.699219,143.445038 
	C1718.896851,130.532578 1738.643188,130.203949 1751.344604,139.980118 
	C1766.157837,151.381714 1768.327026,172.876160 1757.272461,187.251785 
M1705.902954,150.499741 
	C1697.473999,163.908905 1700.580566,181.833633 1713.692627,191.346634 
	C1728.326294,201.963730 1744.317505,197.379013 1753.668945,186.125473 
	C1765.852905,171.463287 1762.975342,153.859406 1748.319824,142.032608 
	C1742.879517,137.642242 1736.013550,135.521530 1729.054321,136.204102 
	C1719.511108,137.140121 1711.779175,141.951523 1705.902954,150.499741 
z"/>
<path fill="#000000" opacity="1.000000" stroke="none" 
	d="
M1480.022339,439.303986 
	C1484.893799,427.267395 1493.848999,420.684662 1506.077271,419.219482 
	C1512.999390,418.390106 1519.889648,420.651154 1525.329468,425.040436 
	C1539.992432,436.871674 1542.837280,454.484589 1530.670288,469.122101 
	C1521.306030,480.387726 1505.283325,485.014923 1490.716919,474.345398 
	C1478.926392,465.709229 1475.710571,451.188385 1480.022339,439.303986 
z"/>
<path fill="#000000" opacity="1.000000" stroke="none" 
	d="
M558.996582,365.723633 
	C556.694824,371.626038 555.423035,377.885223 551.902222,382.384369 
	C542.583557,394.292358 525.774841,398.660583 511.946899,388.596191 
	C504.238068,382.985474 499.891449,375.558167 499.195740,366.550629 
	C498.052521,351.747986 506.823700,337.673126 522.624634,334.098328 
	C539.660278,330.244171 552.502686,340.985138 557.468750,354.154999 
	C558.756348,357.569794 558.531494,361.554932 558.996582,365.723633 
z"/>
<path fill="#000000" opacity="1.000000" stroke="none" 
	d="
M254.622070,536.846375 
	C259.804596,524.925415 269.184052,518.675476 281.173645,518.263489 
	C295.267059,517.779297 307.464294,527.234619 311.038483,541.826660 
	C313.394440,551.445129 311.213837,560.031921 305.080475,567.438354 
	C295.381958,579.149841 278.772797,583.637207 264.978271,573.622986 
	C257.263550,568.022461 253.098648,560.583191 252.249756,551.569824 
	C251.807236,546.871216 253.589371,541.962952 254.622070,536.846375 
z"/>
<path fill="#000000" opacity="1.000000" stroke="none" 
	d="
M1033.301025,805.845337 
	C1024.471313,806.535217 1016.996887,805.052612 1009.853943,799.645081 
	C998.950989,791.391052 995.315125,776.060852 1000.670471,763.778625 
	C1005.762817,752.099731 1015.133118,745.601135 1027.346191,745.261963 
	C1041.445923,744.870361 1053.576294,754.378906 1057.053467,768.978455 
	C1059.302246,778.420532 1057.000122,786.609863 1051.364624,794.216003 
	C1046.881958,800.266174 1040.351685,803.042725 1033.301025,805.845337 
z"/>
<path fill="#000000" opacity="1.000000" stroke="none" 
	d="
M208.456772,172.210571 
	C222.727341,176.678711 230.887802,188.850845 230.914932,201.061157 
	C230.941101,212.831146 225.715866,222.040924 215.326050,227.875961 
	C204.113297,234.173172 193.436966,233.801041 182.956497,225.593842 
	C173.848404,218.461349 169.901947,209.299133 171.488953,198.241623 
	C173.517776,184.105728 181.512482,174.677704 196.050995,172.095886 
	C199.936523,171.405869 204.056549,172.036469 208.456772,172.210571 
z"/>
<path fill="#000000" opacity="1.000000" stroke="none" 
	d="
M1172.190796,867.001770 
	C1187.576538,863.076050 1204.114136,875.655457 1207.211060,890.502625 
	C1211.644165,911.755432 1192.547729,929.587219 1172.720703,926.979187 
	C1162.713745,925.662842 1151.032349,913.974731 1148.927002,904.199585 
	C1145.187012,886.834900 1155.801025,870.588379 1172.190796,867.001770 
z"/>
<path fill="#000000" opacity="1.000000" stroke="none" 
	d="
M968.631592,934.985596 
	C959.055603,938.209351 944.994873,934.018677 938.777039,926.257690 
	C929.778259,915.025513 928.310608,902.777161 935.414734,890.358704 
	C944.717651,874.096741 966.198303,869.805603 980.705933,883.184937 
	C993.842712,895.300110 994.129395,912.385010 983.588257,925.326233 
	C980.084473,929.627808 973.968872,931.802002 968.631592,934.985596 
z"/>
<path fill="#000000" opacity="1.000000" stroke="none" 
	d="
M1705.979004,150.134827 
	C1711.779175,141.951523 1719.511108,137.140121 1729.054321,136.204102 
	C1736.013550,135.521530 1742.879517,137.642242 1748.319824,142.032608 
	C1762.975342,153.859406 1765.852905,171.463287 1753.668945,186.125473 
	C1744.317505,197.379013 1728.326294,201.963730 1713.692627,191.346634 
	C1700.580566,181.833633 1697.473999,163.908905 1705.979004,150.134827 
z"/>
</svg>