<?xml version="1.0" standalone="no"?>
<!DOCTYPE svg PUBLIC "-//W3C//DTD SVG 20010904//EN"
 "http://www.w3.org/TR/2001/REC-SVG-20010904/DTD/svg10.dtd">
<svg version="1.0" xmlns="http://www.w3.org/2000/svg"
 width="194.000000pt" height="300.000000pt" viewBox="0 0 194.000000 300.000000"
 preserveAspectRatio="xMidYMid meet">
<metadata>
Created by potrace 1.10, written by Peter Selinger 2001-2011
</metadata>
<g transform="translate(0.000000,300.000000) scale(0.100000,-0.100000)"
fill="#000000" stroke="none">
<path d="M1332 2229 c2 -13 9 -23 16 -21 7 1 63 -3 125 -9 114 -11 217 -38
252 -65 20 -15 20 -16 -10 -40 -69 -58 -382 -190 -578 -244 -110 -31 -275 -27
-454 9 -129 26 -213 58 -213 80 0 14 66 70 124 105 90 54 312 121 446 134 56
6 65 10 65 27 0 31 -74 31 -207 -1 -219 -52 -332 -103 -422 -189 l-49 -47 11
-287 c13 -310 18 -346 48 -346 22 0 22 -19 6 290 -6 116 -13 218 -17 228 -9
21 4 22 33 1 62 -43 255 -77 442 -78 134 -1 166 2 235 23 189 55 435 158 517
217 47 33 48 33 53 11 31 -140 47 -247 56 -376 5 -85 12 -158 15 -163 10 -15
-115 -85 -208 -116 -170 -56 -387 -111 -508 -129 -106 -15 -132 -16 -227 -4
-60 7 -157 17 -217 22 -69 5 -117 14 -133 24 -27 18 -43 12 -43 -14 0 -11 14
-25 34 -35 45 -21 415 -69 488 -63 l57 5 -5 -26 c-3 -18 3 -35 17 -52 19 -23
28 -25 100 -25 77 0 79 1 115 36 25 26 37 47 41 77 4 26 12 43 22 46 9 3 66
19 126 36 229 65 325 115 414 216 45 51 45 52 31 74 -7 12 -15 7 -42 -24 l-34
-39 4 106 c4 113 -12 235 -52 394 -13 51 -21 102 -19 116 7 37 -33 74 -112
104 -58 21 -93 26 -208 31 l-139 5 4 -24z m-36 -1037 c-27 -53 -53 -67 -117
-66 -67 1 -64 0 -72 35 -7 26 -6 27 64 33 39 4 81 11 93 16 40 17 48 13 32
-18z"/>
<path d="M1720 1225 c-8 -2 -50 -9 -92 -16 -81 -12 -103 -25 -92 -53 7 -19 34
-17 174 10 81 16 96 24 87 48 -6 15 -36 19 -77 11z"/>
<path d="M808 1072 c-66 -39 -98 -69 -98 -91 0 -34 22 -29 97 23 56 37 73 54
71 69 -4 30 -18 30 -70 -1z"/>
<path d="M1396 1082 c-13 -21 12 -66 44 -84 55 -29 100 -21 100 18 0 2 -25 15
-55 29 -30 13 -55 29 -55 35 0 12 -27 13 -34 2z"/>
<path d="M1000 1033 c-40 -15 -113 -113 -103 -139 10 -26 30 -15 79 44 27 31
53 60 58 63 10 8 1 39 -11 38 -4 0 -15 -3 -23 -6z"/>
<path d="M1174 976 c-3 -8 -1 -23 4 -33 5 -10 12 -34 16 -54 8 -45 33 -70 47
-48 10 16 4 81 -13 122 -11 29 -45 37 -54 13z"/>
</g>
</svg>
