 <svg  version="1.0" xmlns="http://www.w3.org/2000/svg"  width="300.000000pt" height="159.000000pt" viewBox="0 0 300.000000 159.000000"  preserveAspectRatio="xMidYMid meet">  <g transform="translate(0.000000,159.000000) scale(0.100000,-0.100000)" fill="#2e1ff9" stroke="none"> <path d="M2672 1374 c-24 -17 -30 -62 -10 -82 30 -30 98 -1 98 41 0 20 -34 57 -53 57 -7 0 -23 -7 -35 -16z m69 -25 c14 -26 -6 -59 -35 -59 -31 0 -50 24 -42 54 10 39 57 42 77 5z"/> <path d="M272 1318 c-19 -19 -14 -63 8 -83 46 -41 116 29 75 75 -20 22 -64 27 -83 8z m65 -6 c11 -7 16 -26 14 -49 0 -7 -10 -17 -21 -23 -27 -15 -60 4 -60 33 0 38 35 59 67 39z"/> <path d="M787 1062 c-33 -36 -8 -92 40 -92 25 0 53 30 53 57 0 46 -62 69 -93 35z m67 -8 c9 -8 16 -22 16 -29 0 -7 -7 -21 -16 -29 -8 -9 -22 -16 -29 -16 -7 0 -21 7 -29 16 -9 8 -16 22 -16 29 0 7 7 21 16 29 8 9 22 16 29 16 7 0 21 -7 29 -16z"/> <path d="M2320 930 c-26 -26 -25 -55 1 -81 32 -32 89 -4 89 43 0 22 -34 58 -55 58 -8 0 -24 -9 -35 -20z m74 -22 c14 -23 -3 -52 -33 -56 -42 -6 -67 38 -39 66 17 17 58 11 72 -10z"/> <path d="M394 765 c-32 -49 23 -104 75 -75 24 12 29 68 9 88 -21 21 -66 14 -84 -13z m76 1 c28 -35 -11 -93 -47 -70 -36 22 -23 84 17 84 10 0 23 -7 30 -14z"/> <path d="M1572 424 c-43 -30 -21 -94 33 -94 53 0 73 52 35 90 -24 24 -38 25 -68 4z m74 -29 c9 -22 -15 -55 -39 -55 -47 0 -63 48 -25 74 23 16 54 7 64 -19z"/> <path d="M1800 230 c-24 -24 -25 -38 -4 -68 17 -24 62 -30 82 -10 17 17 15 64 -4 82 -21 22 -50 20 -74 -4z m64 -3 c38 -27 -2 -95 -41 -71 -25 16 -29 55 -7 71 10 7 21 13 24 13 3 0 14 -6 24 -13z"/> <path d="M1454 204 c-16 -24 -16 -27 3 -52 26 -35 60 -35 86 0 19 25 19 28 3 52 -11 18 -25 26 -46 26 -21 0 -35 -8 -46 -26z m76 2 c6 -8 10 -25 8 -38 -2 -19 -9 -23 -38 -23 -29 0 -36 4 -38 23 -6 44 41 70 68 38z"/> </g> </svg> 